# xmcd CD database file
#
# Track frame offsets:
#	150
#	12819
#	35307
#	50631
#	59115
#	73797
#	95127
#	112968
#	122778
#	137370
#	151092
#
# Disc length: 2208 seconds
#
# Revision: 0
# Processed by: cddbd v1.4PL0 Copyright (c) Steve Scherf et al.
# Submitted via: Feurio! 1.63 - http://www.feurio.com
#
DISCID=94089e0b
DTITLE=Tracy Chapman - Tracy Chapman
DYEAR=1900
DGENRE=folk
TTITLE0=Talkin' bout a revolution
TTITLE1=Fast car
TTITLE2=Across the lines
TTITLE3=Behind the wall
TTITLE4=Baby can i hold you 
TTITLE5=Mountians o' things
TTITLE6=She's got her ticket
TTITLE7=Why?
TTITLE8=For my lover
TTITLE9=If not now
TTITLE10=For you
EXTD=
EXTT0=
EXTT1=
EXTT2=
EXTT3=
EXTT4=
EXTT5=
EXTT6=
EXTT7=
EXTT8=
EXTT9=
EXTT10=
PLAYORDER=
